<?xml version="1.0" encoding="UTF-8" standalone="no"?>
<!DOCTYPE svg PUBLIC "-//W3C//DTD SVG 1.1//EN" "http://www.w3.org/Graphics/SVG/1.1/DTD/svg11.dtd">
<svg width="100%" height="100%" viewBox="0 0 200 200" version="1.1" xmlns="http://www.w3.org/2000/svg" xmlns:xlink="http://www.w3.org/1999/xlink" xml:space="preserve" xmlns:serif="http://www.serif.com/" style="fill-rule:evenodd;clip-rule:evenodd;stroke-linejoin:round;stroke-miterlimit:2;">
    <rect id="Mesa-de-trabajo1" serif:id="Mesa de trabajo1" x="0" y="0" width="200" height="200" style="fill:none;"/>
    <clipPath id="_clip1">
        <rect id="Mesa-de-trabajo11" serif:id="Mesa de trabajo1" x="0" y="0" width="200" height="200"/>
    </clipPath>
    <g clip-path="url(#_clip1)">
        <g transform="matrix(0.06,0,0,0.06,100,100)">
            <g transform="matrix(1,0,0,1,-1666.666667,-1666.666667)">
                <g transform="matrix(6.510417,0,0,6.510417,0,0)">
                    <path d="M512,316.391C512,302.64 508.075,289.698 501.301,278.787C496.843,271.617 491.153,265.321 484.526,260.155C490.905,251.184 495.235,240.539 496.678,228.893C497.037,226.044 497.202,223.203 497.202,220.391C497.202,203.312 490.832,187.374 480.16,175.213L480.16,175.223C472.439,166.399 462.364,159.523 450.819,155.579C453.255,148.17 454.551,140.449 454.561,132.664L454.561,132.608C454.551,124.409 453.127,116.173 450.186,108.314C447.253,100.445 442.805,92.954 436.848,86.299C429.826,78.431 421.387,72.447 412.278,68.458C403.28,64.514 393.619,62.502 383.93,62.456L383.645,62.456L383.645,62.446C383.618,62.456 383.369,62.437 382.919,62.465C381.779,62.473 380.64,62.511 379.5,62.566C376.172,50.524 369.765,39.733 361.19,31.167C354.746,24.714 347.052,19.493 338.504,15.871C330.13,12.323 320.911,10.347 311.315,10.264C311.306,10.264 311.131,10.264 310.828,10.254L310.67,10.254C310.541,10.254 310.348,10.254 310.063,10.264C300.467,10.355 291.266,12.332 282.892,15.871C274.334,19.492 266.65,24.713 260.197,31.167L260.207,31.167C258.736,32.637 257.339,34.182 255.997,35.771C254.664,34.181 253.267,32.637 251.796,31.167C245.352,24.714 237.66,19.493 229.111,15.871C220.737,12.323 211.527,10.347 201.921,10.264C201.921,10.264 201.737,10.264 201.443,10.254L201.277,10.254C201.157,10.254 200.955,10.254 200.679,10.264C191.083,10.355 181.873,12.332 173.498,15.871C164.95,19.492 157.257,24.713 150.813,31.167C142.237,39.733 135.839,50.515 132.503,62.566C131.253,62.492 130.003,62.456 128.743,62.456L128.743,62.446C128.743,62.446 128.651,62.446 128.522,62.437C128.495,62.446 128.274,62.437 127.86,62.456C118.245,62.529 108.658,64.533 99.724,68.449C90.614,72.438 82.176,78.423 75.154,86.3C69.097,93.065 64.547,100.741 61.531,108.811C58.508,116.881 57.009,125.366 57.009,133.813L57.009,134.171L57.018,134.171C57.056,141.121 58.13,148.042 60.171,154.715C51.751,158.484 44.195,163.815 37.918,170.351L37.918,170.332C31.722,176.766 26.731,184.35 23.275,192.733C19.819,201.116 17.925,210.308 17.925,219.858C17.925,220.704 17.944,221.559 17.971,222.405C18.303,231.863 20.49,240.889 24.157,249.061C25.665,252.416 27.43,255.625 29.415,258.685C21.96,264.109 15.581,270.929 10.701,278.788C3.925,289.698 0,302.64 0,316.391C0,326.218 2.004,335.639 5.616,344.197C9.238,352.755 14.468,360.439 20.921,366.892L20.912,366.892C27.346,373.318 35.004,378.53 43.524,382.15C47.044,383.639 50.712,384.844 54.499,385.763C53.093,391.398 52.376,397.152 52.366,402.888L52.357,402.888L52.357,403.071C52.357,412.889 54.379,422.696 58.387,431.824C62.394,440.942 68.396,449.39 76.302,456.422C83.067,462.442 90.724,466.974 98.776,469.98C106.7,472.931 115.018,474.42 123.318,474.456C123.447,474.474 123.557,474.474 123.65,474.474L123.916,474.474L123.916,474.466C130.405,474.456 136.886,473.537 143.154,471.754C145.453,474.989 148.007,478.032 150.812,480.835L150.812,480.826C157.256,487.288 164.948,492.509 173.497,496.131C181.853,499.661 191.045,501.646 200.614,501.729C200.816,501.738 201,501.748 201.294,501.748L201.312,501.748C201.524,501.748 201.624,501.738 201.624,501.738C211.331,501.702 220.642,499.707 229.108,496.131C237.657,492.509 245.35,487.289 251.793,480.835C253.264,479.365 254.661,477.82 255.994,476.221C257.336,477.82 258.733,479.365 260.204,480.835C266.647,487.288 274.341,492.509 282.889,496.131C291.235,499.661 300.427,501.646 310.005,501.729C310.207,501.738 310.391,501.748 310.676,501.748L310.703,501.748C310.905,501.748 311.006,501.738 311.006,501.738C320.713,501.702 330.034,499.707 338.499,496.131C347.047,492.509 354.741,487.289 361.185,480.826L361.185,480.835C363.988,478.032 366.543,474.989 368.842,471.754C375.175,473.546 381.71,474.474 388.273,474.474L388.365,474.474C388.539,474.474 388.641,474.466 388.649,474.466C396.95,474.42 405.277,472.939 413.219,469.97C421.271,466.974 428.928,462.442 435.693,456.422C443.598,449.39 449.6,440.942 453.608,431.824C457.579,422.76 459.601,413.045 459.629,403.301L459.638,403.301L459.638,403.052C459.638,397.252 458.912,391.452 457.497,385.762C461.283,384.843 464.951,383.638 468.472,382.149C476.993,378.528 484.65,373.316 491.084,366.891L491.075,366.891C497.527,360.439 502.758,352.754 506.38,344.196C509.996,335.638 512,326.218 512,316.391ZM248.404,249.556C243.164,247.764 237.723,246.854 232.17,246.854C227.014,246.854 221.903,247.635 216.949,249.18L216.756,249.254C209.963,251.616 203.344,252.802 197.076,252.802C186.01,252.802 176.403,249.135 169.298,242.222C162.872,235.963 159.196,227.396 159.196,218.71C159.206,210.97 162.046,203.469 167.405,197.035C170.089,193.818 169.657,189.02 166.449,186.336C165.089,185.196 163.361,184.571 161.577,184.571C159.326,184.571 157.193,185.564 155.75,187.292C148.056,196.493 143.994,207.358 144.003,218.701C144.003,231.459 149.352,243.997 158.682,253.097C168.518,262.712 182.14,268.007 197.096,268.007C205,268.007 213.255,266.536 221.528,263.677C224.984,262.593 228.56,262.051 232.172,262.051C237.808,262.051 243.387,263.421 248.406,266.031L248.406,331.579L208.145,331.579C203.953,331.579 200.553,334.989 200.553,339.181C200.553,343.363 203.953,346.773 208.145,346.773L248.406,346.773L248.406,430.337C248.406,436.606 247.183,442.691 244.867,448.316C244.84,448.372 244.811,448.408 244.784,448.464C243,452.756 240.593,456.718 237.688,460.247C237.623,460.339 237.55,460.413 237.486,460.486C237.063,460.992 236.641,461.488 236.209,461.966C235.822,462.398 235.418,462.803 235.013,463.216C234.884,463.354 234.756,463.501 234.618,463.64L234.608,463.648C234.517,463.74 234.424,463.814 234.332,463.906C233.882,464.356 233.413,464.807 232.944,465.23C232.678,465.469 232.41,465.698 232.144,465.928C231.841,466.194 231.538,466.462 231.226,466.718C230.766,467.095 230.297,467.453 229.819,467.821C229.7,467.913 229.581,468.005 229.461,468.097C226.445,470.358 223.146,472.251 219.644,473.741C218.247,474.329 216.822,474.844 215.37,475.303C215.342,475.313 215.333,475.313 215.314,475.322C214.68,475.515 214.046,475.699 213.402,475.864C213.273,475.9 213.154,475.937 213.034,475.964C212.484,476.112 211.932,476.222 211.38,476.35C211.159,476.396 210.948,476.452 210.727,476.498C210.258,476.589 209.78,476.664 209.303,476.755C208.999,476.801 208.705,476.865 208.393,476.902C207.971,476.976 207.539,477.013 207.115,477.068C206.766,477.114 206.407,477.16 206.058,477.197C205.618,477.243 205.186,477.27 204.744,477.298C204.395,477.326 204.046,477.363 203.696,477.381C203.006,477.417 202.308,477.427 201.609,477.427C201.507,477.427 201.407,477.436 201.306,477.436C201.195,477.436 201.076,477.427 200.956,477.427C200.276,477.427 199.596,477.417 198.925,477.381C198.558,477.363 198.199,477.326 197.831,477.298C197.418,477.27 196.986,477.243 196.562,477.197C196.195,477.16 195.836,477.105 195.468,477.068C195.055,477.014 194.632,476.968 194.218,476.902C193.906,476.865 193.593,476.801 193.281,476.746C192.812,476.664 192.353,476.59 191.893,476.498C191.663,476.452 191.433,476.388 191.203,476.342C190.661,476.222 190.118,476.103 189.585,475.964C189.457,475.928 189.319,475.891 189.19,475.854C188.556,475.688 187.932,475.514 187.315,475.321C187.279,475.312 187.242,475.302 187.215,475.293C185.772,474.843 184.356,474.328 182.977,473.74C179.465,472.251 176.175,470.357 173.151,468.096C173.023,468.004 172.903,467.894 172.774,467.801C172.305,467.443 171.846,467.093 171.395,466.717C171.055,466.432 170.724,466.138 170.384,465.853C170.154,465.651 169.906,465.448 169.676,465.237C169.115,464.722 168.555,464.189 168.003,463.646C167.994,463.628 167.984,463.619 167.975,463.61C167.185,462.819 166.422,461.993 165.687,461.137C165.567,460.99 165.439,460.853 165.319,460.705C162.957,457.893 160.898,454.804 159.224,451.477C159.197,451.421 159.151,451.357 159.114,451.292C155.916,444.858 154.206,437.725 154.206,430.335C154.206,424.709 155.465,418.597 157.764,413.128C160.301,407.088 164.051,401.876 168.61,398.071C170.172,396.775 171.129,394.946 171.312,392.924C171.497,390.901 170.88,388.934 169.584,387.372C168.141,385.644 166.009,384.652 163.748,384.652C161.974,384.652 160.245,385.277 158.885,386.408C152.46,391.766 147.229,398.982 143.746,407.264C140.658,414.645 139.022,422.623 139.012,430.336C139.012,435.906 139.757,441.421 141.218,446.78C140.408,447.102 139.581,447.414 138.745,447.69C138.533,447.763 138.304,447.838 138.092,447.902C137.569,448.068 137.054,448.224 136.53,448.371C136.2,448.463 135.868,448.555 135.529,448.647C135.115,448.748 134.701,448.849 134.279,448.941C133.892,449.043 133.506,449.125 133.121,449.199C132.744,449.282 132.367,449.346 131.981,449.419C131.577,449.493 131.173,449.557 130.758,449.621C130.372,449.677 129.986,449.731 129.6,449.777C129.214,449.823 128.819,449.877 128.433,449.924C127.964,449.96 127.504,449.997 127.045,450.026C126.723,450.053 126.411,450.08 126.089,450.099C125.308,450.136 124.517,450.163 123.727,450.163C112.201,450.163 101.087,445.926 92.465,438.26C82.427,429.326 76.682,416.493 76.673,403.054C76.673,402.346 76.683,401.648 76.719,400.95C76.894,396.924 77.602,392.916 78.815,389.018C78.869,388.844 78.915,388.66 78.981,388.476C78.999,388.393 79.036,388.31 79.063,388.237C79.257,387.649 79.459,387.051 79.68,386.463C79.689,386.435 79.698,386.418 79.716,386.389C80.019,385.581 80.35,384.781 80.709,383.972C80.746,383.899 80.783,383.825 80.81,383.752C81.186,382.924 81.582,382.106 82.014,381.279C82.024,381.26 82.033,381.251 82.033,381.251C83.807,377.85 85.995,374.67 88.577,371.765C91.362,368.631 91.077,363.824 87.943,361.039C86.555,359.797 84.763,359.118 82.905,359.118C80.736,359.118 78.659,360.056 77.225,361.674C76.775,362.17 76.343,362.685 75.911,363.2C75.221,363.32 74.789,363.384 74.431,363.42C73.833,363.476 73.07,363.494 71.415,363.494L71.278,363.494C70.469,363.494 69.669,363.466 68.869,363.43C68.824,363.42 68.768,363.42 68.722,363.411C67.978,363.374 67.242,363.319 66.516,363.237C66.406,363.237 66.286,363.209 66.176,363.2C65.505,363.127 64.843,363.044 64.181,362.942C64.061,362.924 63.951,362.905 63.841,362.887C63.17,362.776 62.508,362.666 61.855,362.529C61.782,362.51 61.717,362.492 61.644,362.473C60.936,362.326 60.246,362.17 59.557,361.995C59.547,361.987 59.538,361.987 59.529,361.987C57.295,361.407 55.126,360.663 53.021,359.771C49.529,358.291 46.247,356.388 43.241,354.145C43.112,354.054 42.993,353.952 42.864,353.851C42.395,353.493 41.936,353.143 41.494,352.767C41.164,352.5 40.842,352.215 40.52,351.93C40.272,351.728 40.024,351.508 39.785,351.296C39.215,350.773 38.655,350.248 38.112,349.706C37.56,349.154 37.027,348.584 36.504,348.014C36.393,347.885 36.283,347.756 36.163,347.628C35.777,347.186 35.391,346.745 35.023,346.304C34.711,345.918 34.417,345.532 34.114,345.146C33.958,344.944 33.792,344.742 33.645,344.539C33.221,343.979 32.826,343.418 32.431,342.839C32.403,342.793 32.377,342.756 32.349,342.719C30.657,340.21 29.196,337.535 28.01,334.731C27.146,332.673 26.42,330.549 25.85,328.361C25.832,328.288 25.804,328.214 25.786,328.141C25.63,327.534 25.501,326.927 25.363,326.302C25.327,326.155 25.289,325.999 25.261,325.833C25.151,325.291 25.059,324.739 24.967,324.187C24.93,323.957 24.875,323.737 24.847,323.507C24.773,322.992 24.709,322.477 24.645,321.963C24.618,321.687 24.581,321.43 24.553,321.155C24.499,320.621 24.462,320.089 24.433,319.555C24.415,319.298 24.379,319.041 24.369,318.783C24.333,318.002 24.314,317.201 24.314,316.393C24.314,315.281 24.35,314.169 24.433,313.075C24.479,312.331 24.571,311.595 24.663,310.859C24.701,310.51 24.728,310.17 24.774,309.829C24.902,308.864 25.077,307.908 25.27,306.962C25.298,306.851 25.307,306.741 25.326,306.631C25.546,305.62 25.794,304.609 26.079,303.625C26.089,303.579 26.098,303.523 26.107,303.487C26.391,302.503 26.703,301.539 27.044,300.573C27.071,300.509 27.081,300.453 27.108,300.389C27.43,299.479 27.798,298.597 28.174,297.714C28.23,297.594 28.266,297.475 28.321,297.365C28.689,296.519 29.102,295.692 29.526,294.874C29.6,294.726 29.664,294.57 29.737,294.423C30.243,293.468 30.785,292.53 31.355,291.611C31.916,290.71 32.505,289.827 33.111,288.973C36.145,284.764 39.849,281.078 44.068,278.062C44.151,277.998 44.224,277.934 44.307,277.879C44.454,277.778 44.61,277.686 44.757,277.585C46.356,276.491 48.011,275.479 49.739,274.588L49.758,274.569C49.812,274.542 49.868,274.514 49.914,274.495C50.493,274.192 51.081,273.916 51.66,273.65C51.982,273.503 52.294,273.356 52.626,273.209C52.653,273.209 52.68,273.181 52.708,273.172C58.61,270.607 64.878,269.293 71.414,269.293C82.086,269.293 92.133,272.777 100.488,279.367C102.409,281.472 108.577,287.943 117.787,294.46C124.212,299.002 130.813,302.641 137.421,305.261C145.859,308.616 154.317,310.317 162.571,310.317C166.754,310.317 170.164,306.907 170.164,302.715C170.164,298.523 166.754,295.122 162.571,295.122C156.256,295.122 149.684,293.781 143.02,291.142C133.386,287.318 125.27,281.408 120.16,277.124C117.256,274.68 114.994,272.51 113.615,271.122C112.88,270.369 112.31,269.771 111.933,269.357L111.456,268.824L111.189,268.521C111.069,268.383 110.941,268.254 110.793,268.143L110.481,267.877C99.469,258.998 85.608,254.098 71.415,254.098C67.096,254.098 62.757,254.558 58.501,255.468C57.545,254.641 56.653,253.767 55.78,252.876C55.458,252.563 55.146,252.242 54.833,251.91C54.567,251.616 54.31,251.322 54.042,251.028C53.812,250.762 53.565,250.486 53.334,250.21C52.838,249.63 52.36,249.033 51.9,248.426C51.808,248.316 51.734,248.206 51.652,248.095C51.256,247.572 50.871,247.038 50.504,246.496C50.431,246.395 50.366,246.294 50.292,246.184C49.916,245.624 49.548,245.063 49.189,244.475C49.143,244.401 49.097,244.328 49.06,244.254C48.684,243.638 48.316,243.013 47.976,242.379C47.949,242.333 47.93,242.296 47.903,242.251C47.544,241.571 47.195,240.89 46.855,240.201C46.855,240.201 46.855,240.182 46.845,240.174C44.795,235.881 43.389,231.275 42.708,226.514C42.7,226.468 42.69,226.422 42.69,226.422C42.588,225.705 42.524,225.006 42.451,224.318C42.441,224.198 42.424,224.079 42.414,223.959C42.358,223.288 42.322,222.617 42.285,221.937C42.285,221.808 42.267,221.679 42.267,221.55L42.267,221.541C42.248,220.98 42.239,220.419 42.239,219.858C42.239,219.077 42.258,218.305 42.295,217.533C42.305,217.275 42.332,217.009 42.351,216.752C42.388,216.246 42.415,215.74 42.461,215.244C42.489,214.932 42.544,214.638 42.571,214.325C42.627,213.865 42.681,213.415 42.745,212.964C42.783,212.67 42.837,212.376 42.883,212.1C42.966,211.632 43.039,211.163 43.131,210.703C43.176,210.455 43.241,210.207 43.296,209.968C43.398,209.462 43.508,208.965 43.627,208.469C43.673,208.286 43.728,208.111 43.774,207.927C43.921,207.375 44.069,206.815 44.234,206.263C44.271,206.162 44.308,206.043 44.344,205.933C44.537,205.316 44.73,204.71 44.95,204.103C44.959,204.057 44.987,204.012 44.996,203.966C45.235,203.304 45.484,202.642 45.759,201.989L45.768,201.971C46.329,200.592 46.963,199.259 47.652,197.945L47.662,197.935C48.002,197.283 48.36,196.648 48.728,196.023C48.755,195.968 48.783,195.922 48.811,195.876C49.16,195.297 49.519,194.717 49.886,194.148C49.969,194.029 50.061,193.9 50.144,193.772C50.466,193.294 50.787,192.816 51.128,192.347C51.321,192.071 51.541,191.805 51.744,191.538C51.983,191.226 52.213,190.904 52.461,190.591C52.865,190.085 53.279,189.589 53.702,189.102C53.766,189.029 53.822,188.954 53.877,188.89C54.382,188.32 54.897,187.76 55.421,187.208C55.44,187.198 55.449,187.181 55.457,187.171C56.147,186.463 56.855,185.783 57.581,185.121C57.774,184.947 57.967,184.772 58.169,184.598C59.713,183.237 61.34,181.96 63.06,180.801C63.17,180.737 63.28,180.663 63.39,180.59C65.219,179.377 67.14,178.292 69.144,177.336C69.163,177.327 69.181,177.317 69.19,177.317C72.288,175.847 75.578,174.707 79.007,173.943C79.035,173.934 79.061,173.925 79.09,173.916C81.884,173.3 84.761,172.923 87.675,172.822C88.208,172.794 88.732,172.794 89.357,172.794L89.366,172.794C91.793,172.794 94.229,172.978 96.609,173.346C97.004,173.402 97.39,173.438 97.776,173.438C101.554,173.438 104.698,170.726 105.286,166.994C105.92,162.858 103.07,158.97 98.934,158.326C95.772,157.84 92.564,157.591 89.365,157.591C88.841,157.591 88.308,157.601 87.784,157.619C87.444,157.04 87.132,156.442 86.828,155.854C86.488,155.221 86.166,154.586 85.863,153.942C85.753,153.703 85.643,153.473 85.541,153.225C85.228,152.536 84.925,151.855 84.649,151.157C84.566,150.946 84.483,150.725 84.41,150.514C84.134,149.797 83.877,149.08 83.638,148.344C83.564,148.132 83.5,147.903 83.436,147.692C83.216,146.966 83.004,146.248 82.82,145.522C82.746,145.256 82.691,145.007 82.627,144.741C82.471,144.051 82.305,143.362 82.176,142.664C82.102,142.315 82.056,141.974 81.992,141.634C81.89,141.009 81.79,140.393 81.707,139.768C81.643,139.262 81.597,138.756 81.551,138.241C81.505,137.772 81.45,137.303 81.422,136.826C81.358,135.842 81.321,134.85 81.321,133.848L81.321,133.829C81.321,122.973 85.061,112.513 91.883,104.139C91.957,104.038 92.039,103.946 92.121,103.854C92.498,103.395 92.884,102.935 93.289,102.484C93.537,102.208 93.795,101.951 94.042,101.685C94.364,101.336 94.686,100.986 95.017,100.655C103.823,91.794 115.864,86.757 128.439,86.747L128.521,86.747C129.331,86.757 130.13,86.775 130.939,86.821C131.196,86.839 131.454,86.858 131.702,86.875C132.317,86.921 132.943,86.977 133.559,87.041C133.788,87.068 134.018,87.096 134.257,87.124C135.066,87.224 135.885,87.344 136.693,87.482C136.702,87.49 136.72,87.49 136.739,87.49C137.603,87.646 138.467,87.831 139.331,88.042C146.74,89.807 153.652,93.356 159.479,98.448C161.097,100.286 168.101,108.072 177.174,116.116C183.286,121.52 189.105,125.96 194.473,129.306C197.847,131.402 200.971,133.038 204.013,134.307C207.616,135.805 210.926,136.706 214.133,137.055C214.418,137.092 214.694,137.11 214.979,137.11C218.858,137.11 222.093,134.205 222.525,130.345C222.746,128.332 222.176,126.347 220.908,124.765C219.639,123.175 217.828,122.182 215.806,121.962C214.105,121.778 212.047,121.189 209.84,120.27C206.034,118.698 201.484,115.986 196.677,112.43C189.526,107.144 182.797,100.792 178.413,96.39C175.923,93.889 173.9,91.738 172.65,90.378C171.97,89.634 171.437,89.045 171.078,88.65L170.683,88.191L168.403,90.213L170.573,88.072L170.38,87.851L170.123,87.585L169.892,87.383C165.251,83.238 160.057,79.827 154.423,77.245C154.809,73.062 155.746,69.037 157.153,65.241C157.199,65.121 157.245,65.011 157.291,64.892C157.484,64.377 157.686,63.872 157.897,63.366C157.98,63.173 158.072,62.98 158.155,62.786C158.339,62.363 158.522,61.94 158.715,61.536C158.835,61.279 158.963,61.04 159.083,60.791C159.258,60.433 159.432,60.083 159.616,59.726C159.764,59.45 159.928,59.174 160.085,58.889C160.251,58.586 160.416,58.273 160.6,57.969C160.775,57.656 160.968,57.363 161.152,57.059C161.318,56.793 161.474,56.517 161.649,56.251C161.86,55.921 162.081,55.599 162.301,55.267C162.457,55.037 162.613,54.807 162.779,54.578C163.027,54.22 163.294,53.861 163.56,53.502C163.698,53.318 163.826,53.135 163.965,52.95C164.286,52.546 164.608,52.141 164.93,51.756C165.04,51.627 165.132,51.498 165.233,51.37C165.628,50.91 166.024,50.469 166.419,50.018C166.475,49.962 166.529,49.898 166.585,49.843C167.044,49.337 167.513,48.841 168.001,48.354C168.553,47.812 169.113,47.279 169.683,46.755C169.849,46.608 170.023,46.47 170.189,46.323C170.584,45.965 170.988,45.615 171.402,45.266C171.788,44.953 172.193,44.641 172.596,44.338C172.781,44.191 172.974,44.035 173.167,43.887C173.718,43.474 174.288,43.079 174.858,42.683C174.904,42.655 174.941,42.619 174.987,42.6C177.487,40.908 180.162,39.448 182.975,38.262C184.326,37.692 185.723,37.177 187.139,36.736C187.203,36.708 187.259,36.69 187.313,36.671C187.92,36.487 188.536,36.313 189.143,36.148C189.29,36.111 189.437,36.074 189.593,36.028C190.117,35.89 190.65,35.78 191.184,35.66C191.422,35.614 191.652,35.55 191.892,35.504C192.351,35.412 192.811,35.338 193.28,35.256C193.592,35.202 193.905,35.136 194.217,35.091C194.631,35.026 195.054,34.989 195.467,34.935C195.835,34.889 196.194,34.833 196.561,34.797C196.985,34.76 197.425,34.733 197.849,34.705C198.207,34.678 198.557,34.641 198.924,34.623C199.614,34.587 200.303,34.577 201.002,34.568L201.306,34.568C201.425,34.568 201.536,34.568 201.655,34.577C202.335,34.577 203.015,34.587 203.696,34.623C204.063,34.641 204.431,34.678 204.79,34.705C205.213,34.733 205.635,34.761 206.05,34.797C206.426,34.843 206.794,34.889 207.171,34.935C207.576,34.989 207.989,35.026 208.394,35.091C208.716,35.136 209.037,35.201 209.35,35.265C209.81,35.338 210.27,35.412 210.72,35.504C210.958,35.55 211.197,35.614 211.446,35.67C211.97,35.78 212.503,35.9 213.027,36.029C213.174,36.075 213.321,36.112 213.468,36.149C214.084,36.314 214.69,36.489 215.288,36.672C215.352,36.691 215.407,36.709 215.471,36.737C216.887,37.177 218.275,37.692 219.645,38.263C222.448,39.457 225.123,40.91 227.633,42.601C227.661,42.62 227.689,42.637 227.725,42.666C228.304,43.06 228.883,43.465 229.453,43.897C229.637,44.026 229.811,44.173 229.995,44.311C230.4,44.632 230.813,44.945 231.218,45.276C231.614,45.598 231.99,45.938 232.376,46.278C232.56,46.444 232.744,46.59 232.937,46.756C233.498,47.28 234.067,47.813 234.609,48.355C235.161,48.907 235.695,49.477 236.218,50.047C236.439,50.286 236.65,50.544 236.862,50.791C237.147,51.113 237.432,51.435 237.699,51.757C240.604,55.287 243.002,59.257 244.786,63.54C244.813,63.586 244.842,63.632 244.86,63.688C247.186,69.313 248.408,75.398 248.408,81.667L248.408,249.556L248.404,249.556ZM487.633,318.781C487.614,319.039 487.587,319.296 487.568,319.544C487.541,320.086 487.504,320.619 487.449,321.153C487.421,321.419 487.385,321.676 487.357,321.943C487.292,322.457 487.237,322.991 487.155,323.505C487.128,323.725 487.082,323.946 487.045,324.167C486.953,324.719 486.852,325.288 486.741,325.839C486.714,325.986 486.677,326.134 486.64,326.281C486.511,326.906 486.374,327.531 486.208,328.147C486.199,328.203 486.181,328.267 486.162,328.322C485.592,330.528 484.866,332.66 483.993,334.728C482.504,338.23 480.601,341.53 478.348,344.545C478.248,344.683 478.128,344.83 478.018,344.977C477.678,345.419 477.328,345.869 476.97,346.301C476.676,346.669 476.363,347.018 476.05,347.377C475.867,347.589 475.682,347.809 475.489,348.021C474.974,348.591 474.441,349.151 473.899,349.693L473.889,349.703C473.806,349.776 473.723,349.85 473.641,349.933C473.182,350.392 472.703,350.852 472.226,351.284C471.978,351.505 471.72,351.725 471.472,351.937C471.16,352.221 470.838,352.497 470.506,352.773C470.066,353.131 469.614,353.481 469.165,353.83C469.027,353.932 468.889,354.042 468.751,354.152C468.163,354.584 467.565,355.016 466.959,355.43C466.949,355.43 466.949,355.439 466.94,355.439C464.449,357.122 461.784,358.583 458.98,359.778C456.893,360.66 454.734,361.396 452.5,361.975C452.481,361.984 452.462,361.984 452.445,361.993C451.755,362.168 451.066,362.325 450.377,362.471C450.303,362.49 450.221,362.508 450.147,362.527C449.494,362.664 448.823,362.775 448.161,362.885C448.051,362.903 447.941,362.922 447.831,362.94C447.169,363.042 446.498,363.124 445.827,363.198C445.716,363.207 445.606,363.235 445.486,363.235C444.76,363.318 444.025,363.373 443.289,363.409C443.234,363.418 443.179,363.418 443.133,363.428C442.334,363.464 441.534,363.492 440.725,363.492L440.586,363.492C439.768,363.492 439.162,363.492 438.72,363.474C438.15,363.464 437.893,363.437 437.478,363.372C437.12,363.317 436.66,363.234 436.017,363.115C435.612,362.627 435.199,362.149 434.775,361.672C433.341,360.054 431.264,359.116 429.095,359.116C427.239,359.116 425.446,359.796 424.058,361.037C420.924,363.822 420.639,368.629 423.424,371.763C426.007,374.668 428.185,377.839 429.959,381.222C429.969,381.241 429.978,381.259 429.986,381.278C430.418,382.105 430.814,382.932 431.191,383.759C431.228,383.824 431.255,383.897 431.283,383.961C431.651,384.779 431.991,385.606 432.303,386.424C432.313,386.433 432.313,386.452 432.322,386.461C432.377,386.627 432.432,386.783 432.488,386.949C432.672,387.454 432.864,387.969 433.03,388.484L433.03,388.494C434.565,393.218 435.328,398.146 435.328,403.053C435.32,415.646 430.263,427.707 421.384,436.521C420.786,437.109 420.171,437.688 419.536,438.259C418.994,438.737 418.442,439.206 417.881,439.665C409.516,446.439 399.083,450.162 388.274,450.162C387.483,450.162 386.702,450.135 385.912,450.098C385.599,450.079 385.287,450.052 384.974,450.033C384.505,449.996 384.036,449.969 383.558,449.923C383.181,449.877 382.813,449.822 382.437,449.785C382.032,449.729 381.619,449.675 381.214,449.619C380.828,449.555 380.442,449.49 380.056,449.417C379.651,449.343 379.246,449.27 378.851,449.197C378.484,449.114 378.116,449.041 377.757,448.958C377.307,448.848 376.856,448.746 376.406,448.626C376.102,448.543 375.799,448.462 375.505,448.379C374.935,448.223 374.365,448.047 373.804,447.873C373.629,447.808 373.455,447.762 373.28,447.698C372.444,447.422 371.608,447.11 370.78,446.778C372.242,441.42 372.986,435.905 372.986,430.334C372.976,424.286 371.938,417.906 369.971,411.885C366.607,401.618 360.779,392.803 353.113,386.405C348.737,382.756 343.801,379.925 338.433,377.994C332.697,375.936 326.428,374.888 319.81,374.888C315.618,374.888 312.208,378.289 312.208,382.48C312.208,386.671 315.618,390.072 319.8,390.072C326.17,390.081 331.942,391.36 336.98,393.878C343.506,397.15 348.92,402.629 352.643,409.744C355.925,415.994 357.799,423.495 357.79,430.334C357.79,437.724 356.081,444.856 352.882,451.291C352.845,451.347 352.808,451.42 352.772,451.476C351.099,454.803 349.04,457.901 346.678,460.713C346.558,460.851 346.439,460.989 346.31,461.127C345.575,461.991 344.802,462.836 344.003,463.636L343.993,463.636L343.993,463.644C343.901,463.736 343.809,463.81 343.717,463.902C343.257,464.352 342.798,464.803 342.32,465.226C342.062,465.465 341.786,465.694 341.52,465.924C341.217,466.19 340.922,466.458 340.61,466.714C340.141,467.091 339.672,467.449 339.204,467.817C339.084,467.909 338.965,468.001 338.846,468.093C335.822,470.354 332.531,472.247 329.02,473.737C327.622,474.325 326.198,474.84 324.746,475.299C324.727,475.309 324.709,475.309 324.69,475.318C324.065,475.511 323.422,475.695 322.778,475.86C322.658,475.896 322.539,475.933 322.419,475.96C321.867,476.108 321.316,476.218 320.764,476.346C320.544,476.392 320.324,476.448 320.112,476.494C319.634,476.585 319.156,476.66 318.687,476.751C318.384,476.797 318.081,476.861 317.778,476.898C317.354,476.972 316.932,477.009 316.5,477.064C316.142,477.11 315.792,477.156 315.434,477.193C315.002,477.239 314.57,477.266 314.13,477.294C313.78,477.322 313.43,477.359 313.073,477.377C312.383,477.413 311.694,477.423 310.995,477.423C310.895,477.423 310.794,477.432 310.692,477.432C310.572,477.432 310.462,477.423 310.343,477.423C309.662,477.423 308.973,477.413 308.302,477.377C307.944,477.359 307.576,477.322 307.218,477.294C306.796,477.266 306.372,477.239 305.949,477.193C305.582,477.156 305.214,477.101 304.855,477.064C304.432,477.01 304.018,476.964 303.605,476.898C303.293,476.861 302.98,476.797 302.667,476.742C302.199,476.66 301.738,476.586 301.269,476.494C301.039,476.448 300.819,476.384 300.589,476.338C300.047,476.218 299.504,476.099 298.971,475.96C298.833,475.924 298.705,475.887 298.576,475.85C297.942,475.684 297.307,475.51 296.692,475.317C296.664,475.308 296.628,475.298 296.6,475.289C295.148,474.839 293.741,474.324 292.353,473.736C288.851,472.247 285.551,470.353 282.536,468.092C282.407,468 282.279,467.89 282.15,467.797C281.691,467.439 281.222,467.089 280.771,466.713C280.431,466.428 280.1,466.134 279.769,465.849C279.539,465.647 279.291,465.444 279.061,465.233C278.49,464.718 277.93,464.185 277.387,463.642C276.835,463.09 276.303,462.53 275.778,461.952C275.475,461.621 275.181,461.262 274.887,460.922C274.694,460.692 274.491,460.462 274.299,460.241C271.394,456.711 268.995,452.74 267.212,448.458C267.185,448.402 267.156,448.366 267.129,448.31C264.813,442.685 263.59,436.6 263.59,430.331L263.59,242.084C273.306,242.451 281.79,243.573 288.822,245.411C295.559,247.157 301.01,249.529 305.468,252.636C308.814,254.97 311.526,257.673 313.787,260.918C317.041,265.578 319.357,271.406 321.288,279.807C321.932,282.583 322.484,285.377 323.062,288.337C323.604,291.077 324.165,293.926 324.798,296.729C326.012,302.069 327.244,306.096 328.788,309.809C330.258,313.357 331.959,316.446 334,319.231C337.474,324.02 341.97,327.899 347.365,330.767C353.119,333.837 359.875,335.84 368.028,336.888C368.359,336.934 368.681,336.962 369.012,336.962C372.808,336.962 376.044,334.112 376.531,330.325C376.798,328.321 376.255,326.317 375.015,324.718C373.775,323.109 371.981,322.089 369.977,321.822C362.679,320.884 357.007,319.055 352.642,316.26C349.47,314.219 347.053,311.738 345.049,308.448C343.486,305.874 342.181,302.766 341.051,298.924C339.838,294.852 338.946,290.339 338.009,285.559C337.466,282.81 336.906,279.961 336.253,277.084C335.105,272.011 333.377,265.346 330.169,258.856C327.733,253.948 324.653,249.59 320.995,245.904C314.809,239.645 306.536,234.892 296.416,231.768C287.242,228.946 276.488,227.337 263.592,226.896L263.592,172.056L307.649,172.056C311.841,172.056 315.251,168.636 315.251,164.454C315.251,160.263 311.841,156.853 307.649,156.853L263.592,156.853L263.592,81.663C263.592,75.394 264.815,69.309 267.131,63.684C267.158,63.628 267.187,63.582 267.214,63.536C268.997,59.252 271.396,55.282 274.301,51.753C274.457,51.568 274.623,51.385 274.779,51.201C275.11,50.815 275.441,50.419 275.79,50.034C276.194,49.583 276.608,49.16 277.03,48.728C277.15,48.608 277.26,48.48 277.389,48.35C277.932,47.8 278.501,47.266 279.071,46.751C279.237,46.604 279.402,46.466 279.568,46.319C279.972,45.961 280.376,45.611 280.781,45.262C281.177,44.949 281.572,44.637 281.975,44.334C282.168,44.187 282.353,44.031 282.545,43.883C283.106,43.47 283.666,43.075 284.246,42.679C284.291,42.651 284.328,42.615 284.365,42.596C286.875,40.904 289.549,39.444 292.353,38.258C293.713,37.688 295.11,37.173 296.525,36.732C296.59,36.704 296.645,36.686 296.71,36.667C297.298,36.483 297.914,36.309 298.529,36.144C298.677,36.107 298.824,36.07 298.971,36.024C299.504,35.886 300.037,35.776 300.57,35.656C300.8,35.61 301.039,35.546 301.268,35.5C301.737,35.408 302.206,35.334 302.666,35.252C302.979,35.198 303.291,35.132 303.604,35.087C304.017,35.022 304.431,34.985 304.854,34.931C305.213,34.885 305.581,34.829 305.948,34.793C306.371,34.756 306.803,34.729 307.235,34.701C307.594,34.674 307.943,34.637 308.301,34.619C308.991,34.583 309.689,34.573 310.388,34.564L310.691,34.564C310.801,34.564 310.921,34.564 311.04,34.573C311.72,34.573 312.401,34.583 313.072,34.619C313.439,34.637 313.807,34.674 314.174,34.701C314.598,34.729 315.02,34.757 315.433,34.793C315.801,34.839 316.178,34.885 316.555,34.931C316.959,34.985 317.373,35.022 317.768,35.087C318.098,35.132 318.411,35.197 318.733,35.261C319.184,35.334 319.643,35.408 320.093,35.5C320.341,35.546 320.581,35.61 320.819,35.666C321.343,35.776 321.876,35.896 322.4,36.025C322.556,36.071 322.703,36.108 322.85,36.145C323.457,36.31 324.073,36.485 324.67,36.668C324.725,36.687 324.79,36.705 324.844,36.733C326.269,37.173 327.666,37.688 329.017,38.259C331.83,39.453 334.505,40.906 337.014,42.597C337.041,42.616 337.069,42.633 337.097,42.662C337.685,43.056 338.264,43.461 338.835,43.893C339.009,44.022 339.193,44.169 339.367,44.307C339.78,44.628 340.195,44.941 340.59,45.272C340.985,45.594 341.371,45.934 341.757,46.274C341.941,46.44 342.133,46.586 342.309,46.752C342.879,47.276 343.439,47.809 343.991,48.351C344.479,48.839 344.947,49.335 345.416,49.84C345.425,49.849 345.425,49.859 345.434,49.868C345.885,50.354 346.326,50.86 346.749,51.366C346.84,51.476 346.923,51.586 347.006,51.687C347.355,52.101 347.696,52.524 348.026,52.947C348.164,53.131 348.284,53.315 348.421,53.489C348.687,53.848 348.955,54.206 349.212,54.574C349.378,54.804 349.534,55.043 349.69,55.272C349.91,55.594 350.132,55.916 350.342,56.246C350.517,56.512 350.682,56.788 350.848,57.064C351.032,57.358 351.216,57.662 351.39,57.965C351.574,58.269 351.739,58.581 351.914,58.902C352.07,59.17 352.226,59.445 352.374,59.721C352.558,60.079 352.732,60.447 352.916,60.805C353.036,61.044 353.156,61.283 353.275,61.531C353.468,61.945 353.653,62.368 353.836,62.8C353.919,62.983 354.011,63.168 354.093,63.369C354.305,63.866 354.507,64.381 354.709,64.896C354.746,65.016 354.792,65.126 354.838,65.236C356.244,69.032 357.182,73.058 357.568,77.25C351.934,79.833 346.74,83.234 342.089,87.379C338.963,90.173 338.697,94.99 341.482,98.116C342.925,99.725 344.984,100.653 347.153,100.653C349.019,100.653 350.812,99.963 352.209,98.723C358.064,93.492 365.059,89.862 372.569,88.06C374.289,87.655 376.025,87.343 377.763,87.123C377.965,87.095 378.168,87.077 378.37,87.058C379.013,86.976 379.665,86.921 380.318,86.884C380.548,86.865 380.796,86.847 381.035,86.828C381.843,86.791 382.661,86.755 383.479,86.755L383.553,86.755C396.128,86.764 408.178,91.793 416.975,100.653C417.563,101.241 418.142,101.857 418.713,102.491C419.182,103.023 419.641,103.557 420.082,104.09C420.496,104.605 420.9,105.12 421.286,105.644C421.314,105.68 421.342,105.708 421.369,105.744C421.728,106.232 422.067,106.718 422.408,107.215C422.463,107.297 422.528,107.38 422.582,107.463C422.885,107.905 423.161,108.346 423.436,108.796C423.538,108.943 423.629,109.081 423.721,109.238C423.951,109.614 424.172,110 424.392,110.396C424.512,110.617 424.649,110.838 424.768,111.059C424.943,111.371 425.099,111.693 425.265,112.014C425.421,112.309 425.587,112.621 425.734,112.924C425.853,113.172 425.973,113.429 426.092,113.678C426.257,114.054 426.441,114.432 426.598,114.818C426.689,115.029 426.772,115.241 426.864,115.452C427.038,115.875 427.213,116.297 427.369,116.72C427.443,116.922 427.507,117.125 427.589,117.327C427.745,117.767 427.893,118.199 428.04,118.641C428.104,118.843 428.16,119.046 428.224,119.248C428.362,119.689 428.5,120.13 428.619,120.581C428.684,120.82 428.739,121.059 428.803,121.297C428.914,121.702 429.015,122.107 429.107,122.52C429.181,122.851 429.254,123.191 429.318,123.531C429.383,123.845 429.447,124.157 429.511,124.478C429.594,124.966 429.667,125.462 429.741,125.959C429.768,126.115 429.796,126.289 429.823,126.455C430.099,128.486 430.237,130.554 430.237,132.66C430.237,133.625 430.2,134.59 430.136,135.565C430.127,135.776 430.108,135.987 430.098,136.208C430.025,137.128 429.933,138.056 429.804,138.985C429.777,139.196 429.74,139.407 429.712,139.618C429.602,140.391 429.473,141.153 429.317,141.917C429.272,142.165 429.226,142.413 429.18,142.661C428.987,143.516 428.775,144.37 428.555,145.225C428.472,145.547 428.38,145.869 428.289,146.191C428.068,146.945 427.838,147.689 427.581,148.434C427.479,148.746 427.36,149.059 427.259,149.372C427.001,150.088 426.725,150.788 426.441,151.486C426.321,151.78 426.202,152.074 426.073,152.358C425.715,153.195 425.329,154.041 424.924,154.868C424.814,155.088 424.694,155.308 424.575,155.538C424.171,156.338 423.73,157.147 423.279,157.937C422.139,159.904 420.889,161.816 419.493,163.654C419.309,163.866 419.134,164.096 418.978,164.325C417.572,166.118 416.1,167.8 414.603,169.307C411.863,172.074 407.994,174.906 403.426,177.506C396.587,181.394 389.142,184.262 384.094,185.972C381.218,186.956 378.809,187.673 377.302,188.105C376.484,188.325 375.84,188.51 375.399,188.62L374.811,188.767C370.739,189.76 368.23,193.878 369.213,197.941C370.041,201.37 373.074,203.75 376.594,203.75C377.2,203.75 377.807,203.677 378.396,203.538C379.195,203.345 386.503,201.516 395.713,197.894C401.302,195.689 406.422,193.271 410.926,190.715C416.855,187.351 421.58,183.84 425.394,179.998C426.599,178.793 427.775,177.506 428.915,176.174C430.073,176.193 431.24,176.266 432.408,176.359C432.453,176.377 432.508,176.386 432.564,176.386C433.17,176.44 433.593,176.477 433.841,176.496C433.86,176.506 433.878,176.506 433.887,176.506C433.961,176.506 434.025,176.524 434.053,176.524L434.071,176.524C434.319,176.561 434.568,176.598 434.815,176.635C435.238,176.699 435.67,176.745 436.093,176.819C443.998,178.179 451.352,181.645 457.409,186.829C457.473,186.883 457.529,186.939 457.593,186.993C457.971,187.315 458.337,187.655 458.705,187.995C458.834,188.115 458.971,188.234 459.11,188.354C459.386,188.62 459.662,188.906 459.938,189.19C460.14,189.383 460.342,189.577 460.535,189.788C460.691,189.944 460.829,190.11 460.976,190.266C461.279,190.588 461.583,190.91 461.877,191.24L461.877,191.249C462.658,192.131 463.395,193.051 464.101,193.997C464.175,194.107 464.258,194.208 464.349,194.319C464.607,194.677 464.854,195.054 465.112,195.413C465.232,195.587 465.36,195.772 465.479,195.955C465.691,196.277 465.893,196.598 466.104,196.929C466.252,197.168 466.398,197.398 466.545,197.627C466.72,197.922 466.876,198.215 467.051,198.501C467.207,198.786 467.382,199.071 467.539,199.356C467.677,199.614 467.796,199.871 467.934,200.128C468.1,200.46 468.283,200.791 468.449,201.13C468.55,201.342 468.642,201.562 468.743,201.782C468.927,202.168 469.111,202.555 469.277,202.941C469.35,203.115 469.414,203.29 469.497,203.464C469.671,203.906 469.856,204.347 470.03,204.797C470.076,204.926 470.122,205.073 470.178,205.202C470.352,205.69 470.527,206.176 470.692,206.673C470.73,206.774 470.757,206.875 470.784,206.985C470.959,207.509 471.124,208.042 471.272,208.575C471.29,208.658 471.309,208.731 471.326,208.814C471.482,209.375 471.63,209.927 471.758,210.496C471.777,210.57 471.786,210.643 471.804,210.716C471.933,211.286 472.052,211.865 472.162,212.436C472.18,212.537 472.189,212.629 472.208,212.72C472.3,213.272 472.401,213.832 472.474,214.394C472.493,214.541 472.502,214.688 472.53,214.826C472.594,215.341 472.65,215.855 472.704,216.37C472.723,216.618 472.74,216.867 472.75,217.114C472.787,217.538 472.823,217.951 472.842,218.364C472.87,219.035 472.887,219.706 472.887,220.387C472.887,221.297 472.851,222.216 472.796,223.135C472.74,224.045 472.657,224.973 472.547,225.892C472.537,225.93 472.529,225.957 472.529,225.994C472.446,226.692 472.335,227.391 472.217,228.071C472.198,228.181 472.171,228.283 472.152,228.383C472.042,229.027 471.913,229.661 471.766,230.295C471.766,230.323 471.756,230.35 471.747,230.368C469.918,238.292 465.929,245.572 460.257,251.372C460.203,251.427 460.156,251.473 460.101,251.528C459.669,251.97 459.219,252.41 458.76,252.834C458.649,252.935 458.539,253.035 458.419,253.146C457.381,254.084 456.305,254.993 455.175,255.848C450.368,254.68 445.469,254.092 440.569,254.092C426.386,254.092 412.525,258.992 401.513,267.871C398.259,270.5 397.744,275.298 400.373,278.552C401.825,280.354 403.977,281.383 406.292,281.383C408.02,281.383 409.712,280.785 411.063,279.7C419.501,272.889 429.713,269.286 440.578,269.286C444.173,269.286 447.739,269.69 451.204,270.499C452.528,271.529 454.201,272.117 455.902,272.117C456.113,272.117 456.325,272.107 456.545,272.09C458.512,272.797 460.378,273.606 462.106,274.498C462.143,274.517 462.18,274.535 462.208,274.554L462.235,274.562L462.235,274.571L462.254,274.581C463.982,275.472 465.636,276.483 467.236,277.578C467.383,277.679 467.539,277.771 467.686,277.872C467.769,277.927 467.842,278.001 467.925,278.055C472.999,281.687 477.338,286.291 480.638,291.605C481.207,292.525 481.741,293.462 482.246,294.417C482.347,294.601 482.43,294.795 482.522,294.987C482.926,295.768 483.312,296.549 483.671,297.34C483.725,297.477 483.781,297.624 483.836,297.753C484.204,298.627 484.563,299.491 484.884,300.382C484.911,300.456 484.93,300.538 484.958,300.612C485.298,301.559 485.61,302.506 485.886,303.48C485.895,303.536 485.905,303.59 485.923,303.646C486.199,304.63 486.447,305.623 486.667,306.624C486.686,306.744 486.704,306.854 486.723,306.973C486.916,307.911 487.09,308.867 487.219,309.822C487.265,310.163 487.293,310.502 487.329,310.852C487.421,311.587 487.513,312.323 487.559,313.068C487.642,314.162 487.679,315.274 487.679,316.386C487.688,317.199 487.67,318 487.633,318.781Z" style="fill-rule:nonzero;"/>
                </g>
            </g>
        </g>
    </g>
</svg>
