<?xml version="1.0" encoding="UTF-8" standalone="no"?>
<!DOCTYPE svg PUBLIC "-//W3C//DTD SVG 1.1//EN" "http://www.w3.org/Graphics/SVG/1.1/DTD/svg11.dtd">
<svg width="100%" height="100%" viewBox="0 0 200 200" version="1.1" xmlns="http://www.w3.org/2000/svg" xmlns:xlink="http://www.w3.org/1999/xlink" xml:space="preserve" xmlns:serif="http://www.serif.com/" style="fill-rule:evenodd;clip-rule:evenodd;stroke-linejoin:round;stroke-miterlimit:2;">
    <rect id="Mesa-de-trabajo1" serif:id="Mesa de trabajo1" x="0" y="0" width="200" height="200" style="fill:none;"/>
    <clipPath id="_clip1">
        <rect id="Mesa-de-trabajo11" serif:id="Mesa de trabajo1" x="0" y="0" width="200" height="200"/>
    </clipPath>
    <g clip-path="url(#_clip1)">
        <g transform="matrix(0.06,0,0,0.06,100,100)">
            <g transform="matrix(1,0,0,1,-1666.666667,-1666.666667)">
                <clipPath id="_clip2">
                    <rect x="0" y="0" width="3333.333" height="3333.333"/>
                </clipPath>
                <g clip-path="url(#_clip2)">
                    <g transform="matrix(18.076253,0,0,18.076253,0,0)">
                        <g>
                            <g>
                                <rect x="0" y="29.487" width="21.644" height="8.163"/>
                                <rect x="0" y="43.294" width="21.644" height="8.159"/>
                                <rect x="0" y="57.098" width="21.644" height="8.163"/>
                                <rect x="32.556" y="57.098" width="21.641" height="8.163"/>
                                <rect x="0" y="70.902" width="21.644" height="8.162"/>
                                <rect x="0" y="84.706" width="21.644" height="8.163"/>
                                <rect x="32.556" y="29.487" width="21.641" height="8.163"/>
                                <rect x="32.556" y="43.294" width="21.641" height="8.159"/>
                                <rect x="97.658" y="29.487" width="21.653" height="8.163"/>
                                <rect x="97.658" y="43.294" width="21.653" height="8.159"/>
                                <rect x="97.658" y="57.098" width="21.653" height="8.163"/>
                                <rect x="130.21" y="29.487" width="21.641" height="8.163"/>
                                <rect x="130.21" y="43.294" width="21.641" height="8.159"/>
                                <rect x="130.21" y="57.098" width="21.641" height="8.163"/>
                                <rect x="162.763" y="29.487" width="21.641" height="8.163"/>
                                <rect x="162.763" y="43.294" width="21.641" height="8.159"/>
                                <rect x="162.763" y="57.098" width="21.641" height="8.163"/>
                                <rect x="162.763" y="70.902" width="21.641" height="8.162"/>
                            </g>
                            <path d="M184.404,101.911L155.352,87.389L155.352,97.6L140.867,97.6L122.618,76.857L98.571,110.936L74.449,29.487L61.854,118.425L45.121,70.665L29.356,97.6L0,97.6L0,106.283L34.333,106.283L43.142,91.261L65.458,154.917L77.463,70.217L95.32,130.566L123.354,90.851L136.926,106.283L155.352,106.283L155.352,116.439L184.404,101.911Z" style="fill-rule:nonzero;"/>
                        </g>
                    </g>
                </g>
            </g>
        </g>
    </g>
</svg>
