<?xml version="1.0" encoding="UTF-8" standalone="no"?>
<!DOCTYPE svg PUBLIC "-//W3C//DTD SVG 1.1//EN" "http://www.w3.org/Graphics/SVG/1.1/DTD/svg11.dtd">
<svg width="100%" height="100%" viewBox="0 0 100 100" version="1.1" xmlns="http://www.w3.org/2000/svg" xmlns:xlink="http://www.w3.org/1999/xlink" xml:space="preserve" xmlns:serif="http://www.serif.com/" style="fill-rule:evenodd;clip-rule:evenodd;stroke-linejoin:round;stroke-miterlimit:2;">
    <rect id="Mesa-de-trabajo1" serif:id="Mesa de trabajo1" x="0" y="0" width="100" height="100" style="fill:none;"/>
    <g id="Mesa-de-trabajo11" serif:id="Mesa de trabajo1">
        <g id="Fondo" transform="matrix(0.125,0,0,0.125,0,4.937506)">
            <path d="M502.114,520.182C501.372,520.961 501.949,521.403 493.712,530.679C483.746,541.901 429.002,606.49 361.311,572.898C282.663,533.869 240.227,439.447 291.816,334.659C304.878,308.127 322.17,273.013 377.095,208.162C384.279,199.679 399.576,183.06 399.807,182.989C402.027,182.311 406.919,189.345 417.509,200.492C423.808,207.122 462.565,254.05 477.87,279.278C498.095,312.616 498.595,312.242 515.176,347.655C526.904,372.704 530.379,400.696 530.969,405.453C538.117,463.036 509.488,508.59 508.682,509.632C507.729,510.865 502.627,519.331 502.114,520.182L462.843,537.825C464.152,536.465 469.438,530.976 476.048,518.273C515.657,442.147 458.442,374.631 443.914,353.161C442.284,350.751 431.608,334.974 421.373,324.619C414.534,317.7 401.628,300.662 398.872,303.889C385.577,319.454 379.569,321.532 351.163,361.285C324.66,398.376 317.176,425.732 315.924,429.636C308.281,453.449 306.078,498.013 338.145,537.833C367.235,573.957 398.018,576.646 384.695,571.29C381.258,569.909 360.325,561.494 347.918,543.158C328.769,514.858 330.16,499.278 328.819,491.421C319.752,438.324 396.69,356.857 400.5,356.857C400.686,356.857 435.722,386.955 459.905,435.302C494.178,503.822 453.189,556.494 416.354,571.384C406.439,575.393 420.676,573.657 436.174,563.024C451.365,552.602 450.108,551.238 462.843,537.825L502.114,520.182Z" style="fill:rgb(247,247,247);fill-opacity:1;"/>
            <path d="M602.181,497.181C553.185,546.203 508.811,556.003 485.609,563.895C475.292,567.405 492.822,557.805 495.403,555.389C498.579,552.416 533.309,531.124 549.206,467.443C565.117,403.703 546.379,369.231 562.774,325.609C594.408,241.439 702.144,225.339 722.519,219.871C737.167,215.94 718.244,221.917 707.587,232.588C652.383,287.869 662.105,370.102 646.515,421.506C635.663,457.291 612.221,487.138 602.181,497.181Z" style="fill:rgb(247,247,247);fill-opacity:1;"/>
            <path d="M305.152,554.921C313.429,562.501 327.593,565.999 316.503,564.242C308.423,562.963 252.993,543.856 224.388,519.64C207.502,505.345 161.067,472.4 148.071,391.554C145.021,372.575 143.819,331.63 127.002,285.676C117.784,260.487 98.715,232.088 82.277,223.876C81.881,223.678 69.434,217.46 78.481,219.85C97.363,224.838 247.638,247.839 245.795,372.504C245.454,395.516 236.347,462.924 276.067,523.833C277.928,526.686 290.293,545.649 305.152,554.921Z" style="fill:rgb(247,247,247);fill-opacity:1;"/>
            <path d="M797.457,297.594L798.54,299.57C752.275,312.075 732.288,398.422 719.227,433.386C711.228,454.8 691.093,478.098 690.608,478.603C660.617,509.849 644.487,515.202 638.647,519.702C631.081,525.53 592.268,543.173 560.494,551.261C552.49,553.298 560.465,548.984 560.643,548.924C573.021,544.778 572.856,544.447 581.793,538.876C583.503,537.81 595.916,530.073 602.308,524.277C643.722,486.725 658.934,446.06 664.09,435.312C670.209,422.553 686.916,360.203 712.38,333.389C728.098,316.839 728.942,317.873 733.349,314.308C745.478,304.496 773.126,293.833 797.457,297.594Z" style="fill:rgb(247,247,247);fill-opacity:1;"/>
            <path d="M0,299.5L0,297.5C43.789,295.463 66.068,305.324 95.629,342.401C120.944,374.152 123.315,415.011 152.816,467.328C166.178,491.024 187.103,515.389 200.13,524.932C205.955,529.199 205.484,529.637 211.287,533.83C233.674,550.008 246.52,549.187 243.391,551.301C242.693,551.772 167.647,535.912 116.867,485.133C68.599,436.864 81.062,398.822 41.13,332.718C29.894,314.118 16.506,305.754 13.821,304.077C7.285,299.994 7.108,300.389 0,299.5Z" style="fill:rgb(247,247,247);fill-opacity:1;"/>
            <path d="M401.5,720.999C398.277,719.395 397.699,718.84 397.425,718.578C372.117,694.3 360.446,670.404 358.132,665.667C348.397,645.735 354.996,624.498 362.309,615.352C374.218,600.459 385.123,592.259 405.527,593.187C415.002,593.618 432.758,605.926 438.113,613.824C469.739,660.461 414.1,705.033 401.5,720.999Z" style="fill:rgb(247,247,247);fill-opacity:1;"/>
            <path d="M546.101,296.174C536.561,306.687 532.801,314.105 528.365,309.629C515.62,296.77 504.634,272.088 504.218,262.522C504.212,262.39 494.336,218.988 560.437,203.124C563.922,202.288 566.695,200.076 565.295,203.382C564.182,206.008 549.658,211.549 556.675,260.478C558.813,275.385 547.655,293.633 546.101,296.174Z" style="fill:rgb(247,247,247);fill-opacity:1;"/>
            <path d="M283.132,223.868C308.73,249.477 293.083,278.946 285.828,291.68C273.228,313.797 269.707,311.25 268.137,309.956C236.195,283.618 246.025,256.416 246.196,239.5C246.55,204.425 234.386,204.978 235.721,202.572C236.572,201.037 255.126,206.776 265.313,211.87C266.85,212.639 275.094,216.762 283.132,223.868Z" style="fill:rgb(247,247,247);fill-opacity:1;"/>
            <path d="M565.491,648.001C562.233,648.487 511.824,653.176 489.661,642.183C455.853,625.414 451.774,583.491 492.501,584.149C519.695,584.589 529.729,615.357 538.637,624.369C563.436,649.459 577.847,644.188 573.296,647.256C572.391,647.866 566.118,647.989 565.491,648.001Z" style="fill:rgb(247,247,247);fill-opacity:1;"/>
            <path d="M227.724,647.238C227.717,646.886 226.977,646.852 226.969,646.5C226.955,645.846 227.266,646.099 229.562,645.617C240.858,643.245 259.435,629.635 266.123,620.256C269.286,615.821 286.089,576.451 319.546,585.272C345.75,592.18 337.039,615.789 335.15,619.327C317.3,652.755 275.007,649.524 257.536,649.058C255.147,648.994 232.756,648.397 227.724,647.238Z" style="fill:rgb(247,247,247);fill-opacity:1;"/>
            <path d="M644.492,582.995C657.173,583.281 663.685,583.496 667.421,582.21C667.614,582.143 672.993,582.664 667.648,584.752C650.882,591.303 600.284,626.399 549.28,596.891C534.064,588.088 535.493,570.993 560.465,566.257C584.356,561.727 610.827,580.385 644.492,582.995Z" style="fill:rgb(247,247,247);fill-opacity:1;"/>
            <path d="M260.067,589.163C256.828,592.908 250.721,602.246 220.516,607.612C185.059,613.911 141.667,588.102 133.375,584.676C116.577,577.736 139.71,586.141 168.483,581.39C202.533,575.768 220.001,559.164 248.5,568.501C249.585,568.857 256.238,571.036 260.095,576.824C263.845,582.45 262.349,582.926 260.067,589.163Z" style="fill:rgb(247,247,247);fill-opacity:1;"/>
            <path d="M391.857,159.062C375.396,143.799 393.313,127.96 404.465,131.601C426.465,138.785 412.63,170.797 391.857,159.062Z" style="fill:rgb(247,247,247);fill-opacity:1;"/>
            <path d="M401.554,2.473C403.796,38.257 414.36,77.847 400.497,77.753C387.083,77.662 396.713,40.873 399.566,3.527L401.554,2.473Z" style="fill:rgb(247,247,247);fill-opacity:1;"/>
            <path d="M408.071,98.873C417.744,115.811 390.58,122.345 391.118,104.486C391.319,97.84 399.627,92.274 408.071,98.873Z" style="fill:rgb(247,247,247);fill-opacity:1;"/>
            <path d="M399.5,0L401.5,0L401.554,2.473L399.566,3.527L399.5,0Z" style="fill:rgb(247,247,247);fill-opacity:0.51;"/>
            <path d="M799.999,297.5L799.999,299.5L798.54,299.57L797.457,297.594L799.999,297.5Z" style="fill:rgb(247,247,247);fill-opacity:0.57;"/>
        </g>
    </g>
</svg>
